<svg xmlns="http://www.w3.org/2000/svg" width="76.164" height="94.034" viewBox="0 0 76.164 94.034"><defs><style>.a{fill:#dc3545;}</style></defs><g transform="translate(-25.913 -16.982)"><path class="a" d="M101.82,98.33,85.53,70.11c6.11-5.59.76-10.32,5.58-14.2a10.24,10.24,0,0,0,0-16,6.21,6.21,0,0,1-2.29-5.54,10.24,10.24,0,0,0-11.3-11.25A6.23,6.23,0,0,1,72,20.83a10.24,10.24,0,0,0-16,0,6.23,6.23,0,0,1-5.54,2.3A10.24,10.24,0,0,0,39.19,34.41,6.21,6.21,0,0,1,36.89,40a10.24,10.24,0,0,0,0,16c4.84,3.89-.57,8.57,5.58,14.19L26.18,98.33a2,2,0,0,0,2.25,2.93l11.28-3,3,11.28a2,2,0,0,0,3.66.48L64,79.5,81.61,110a2,2,0,0,0,3.66-.48l3-11.28,11.28,3a2,2,0,0,0,2.27-2.91ZM39.4,52.8a6.24,6.24,0,0,1,0-9.73A10.19,10.19,0,0,0,43.16,34,6.24,6.24,0,0,1,50,27.1a10.2,10.2,0,0,0,9.09-3.77h0a6.24,6.24,0,0,1,9.73,0A10.19,10.19,0,0,0,78,27.1,6.24,6.24,0,0,1,84.84,34a10.19,10.19,0,0,0,3.77,9.09,6.24,6.24,0,0,1,0,9.73,10.2,10.2,0,0,0-3.77,9.09A6.25,6.25,0,0,1,78,68.77a10.17,10.17,0,0,0-9.09,3.77,6.26,6.26,0,0,1-9.73,0A10.32,10.32,0,0,0,50,68.77a6.25,6.25,0,0,1-6.88-6.88A10.19,10.19,0,0,0,39.4,52.8Zm5.94,51L43,95.27a2,2,0,0,0-2.45-1.41L32,96.15l13.83-24c3.62,1.35,5.06-.22,7.89,1.09,2.41,1.11,2.81,3.41,6.4,4.84Zm42.06-10A2,2,0,0,0,85,95.27l-2.29,8.55L67.83,78.13c3.88-1.55,3.8-3.77,6.63-4.95s4.09.33,7.66-1l13.83,24Z"/><path class="a" d="M64,65.41A17.47,17.47,0,1,0,46.53,47.93,17.47,17.47,0,0,0,64,65.41Zm0-30.95A13.47,13.47,0,1,1,50.53,47.93,13.47,13.47,0,0,1,64,34.46Z"/></g></svg>