<svg xmlns="http://www.w3.org/2000/svg" width="26" height="42" viewBox="0 0 26 42">
  <g id="Grupo_3" data-name="Grupo 3" transform="translate(-797 -585)">
    <circle id="Oval" cx="12" cy="12" r="12" stroke-width="2" transform="translate(798 594)" stroke="#dc3545" stroke-linecap="round" stroke-linejoin="round" stroke-miterlimit="10" fill="none"/>
    <path id="Path" d="M0,0V5.333L3,8" transform="translate(810 601)" fill="none" stroke="#dc3545" stroke-linecap="round" stroke-linejoin="round" stroke-miterlimit="10" stroke-width="2"/>
    <path id="Path-2" data-name="Path" d="M14.967,0l-.22,2.522-.36,4.134a3.38,3.38,0,0,1-3.315,3.163H3.9A3.38,3.38,0,0,1,.58,6.656L0,0" transform="translate(803 616.182)" fill="none" stroke="#dc3545" stroke-linecap="round" stroke-linejoin="round" stroke-miterlimit="10" stroke-width="2"/>
    <path id="Path-3" data-name="Path" d="M0,9.818.58,3.163A3.381,3.381,0,0,1,3.878,0h7.21A3.38,3.38,0,0,1,14.4,3.163l.58,6.656" transform="translate(803.017 586)" fill="none" stroke="#dc3545" stroke-linecap="round" stroke-linejoin="round" stroke-miterlimit="10" stroke-width="2"/>
  </g>
</svg>
