<svg xmlns="http://www.w3.org/2000/svg" width="83.827" height="82.313" viewBox="0 0 83.827 82.313"><defs><style>.a{fill:#dc3545;stroke:#dc3545;stroke-width:2px;}</style></defs><g transform="translate(-0.5 -0.311)"><g transform="translate(1.5 1.311)"><path class="a" d="M81.073,34.758a2.56,2.56,0,0,0-2.538-.377c-2.306.8-2.061,3.033-1.751,5.855.055.5.111,1.015.164,1.579a10,10,0,0,1-.218,3.461c-.65-6.337-3.991-12.3-9.488-16.9A17.041,17.041,0,1,0,36.416,18.355a17.158,17.158,0,0,0,.1,1.87,41.439,41.439,0,0,0-5.41,1.1,8.991,8.991,0,0,1-.426-.875,9,9,0,0,0-6.577-5.817A15.449,15.449,0,0,0,14.8,16.3a1.018,1.018,0,0,0-.294,1.345c.05.1.122.234.228.407.173.283.428.673.724,1.125a47.751,47.751,0,0,1,2.967,4.987c1.1,2.271.77,2.808.765,2.811a27.921,27.921,0,0,0-9.42,11.307H5a3.509,3.509,0,0,0-3.5,3.5V52.635A3.509,3.509,0,0,0,5,56.14H9.474c2.442,6.069,7.4,11.257,14.086,14.735l-2.277,5.241a3.928,3.928,0,0,0,7.206,3.131l2.384-5.487A41.274,41.274,0,0,0,36.1,74.874q.348.051.7.1a43.59,43.59,0,0,0,11.741-.1L49,74.805a41.016,41.016,0,0,0,5.767-1.337l2.511,5.779a3.928,3.928,0,1,0,7.206-3.131l-2.488-5.727A30.1,30.1,0,0,0,73.947,58.735c.1-.078.281-.206.443-.321,2.007-1.436,8.113-5.808,8.725-11.926C83.124,46.394,84.018,37.08,81.073,34.758ZM53.461,3.235a15.12,15.12,0,1,1-15.12,15.12A15.137,15.137,0,0,1,53.461,3.235ZM81.2,46.3c-.525,5.251-6.1,9.241-7.93,10.552-.616.44-.8.573-.94.831A28.252,28.252,0,0,1,60.722,68.891c-.079.043-.159.084-.239.125l-.177.091-.79.416,3.2,7.36a2,2,0,0,1-3.677,1.6l-3.209-7.387-.836.28A38.923,38.923,0,0,1,48.7,72.9l-.432.066a41.637,41.637,0,0,1-11.217.091q-.334-.043-.666-.092a39.253,39.253,0,0,1-5.773-1.292l-.821-.251L26.724,78.48a2,2,0,1,1-3.676-1.6l3.005-6.917-.826-.4c-6.885-3.369-11.925-8.6-14.191-14.717l-.232-.628H5a1.582,1.582,0,0,1-1.58-1.58V41.788A1.582,1.582,0,0,1,5,40.207h6.052l.244-.6a25.813,25.813,0,0,1,9.014-11.069c1.752-1.258.367-4.129-.154-5.21a49.283,49.283,0,0,0-3.09-5.205c-.139-.213-.286-.437-.417-.639,1.913-.827,5.431-1.366,6.991-.979a7.135,7.135,0,0,1,5.282,4.733c.452,1.014,1.072,2.4,2.518,2a39.478,39.478,0,0,1,5.393-1.11,17.036,17.036,0,0,0,29.187,7.737c5.357,4.494,8.5,10.348,8.864,16.505.024.4.035.809.035,1.213a1.3,1.3,0,0,0,.652,1.223,1.27,1.27,0,0,0,1.343-.118c.986-.654,2.317-3.071,1.946-7.048-.054-.579-.114-1.127-.167-1.609-.329-3-.259-3.574.472-3.828a.661.661,0,0,1,.714.072C81.169,37.284,81.6,42.273,81.2,46.3Z" transform="translate(-1.5 -1.311)"/><path class="a" d="M122.888,275.535a3.69,3.69,0,1,0,3.69,3.69A3.695,3.695,0,0,0,122.888,275.535Zm0,5.456a1.766,1.766,0,1,1,1.766-1.766A1.768,1.768,0,0,1,122.888,280.991Z" transform="translate(-103.02 -237.843)"/></g><g transform="translate(47.628 7.107)"><path class="a" d="M342.647,73.965c-4.384,0-5.554-3.209-5.554-5.1h1.924c0,.746.262,3.18,3.63,3.18a3.587,3.587,0,0,0,3.741-2.829c.208-1.786-1.486-3.282-4.531-4-3.668-.867-4.708-3.416-4.484-5.335a5.29,5.29,0,0,1,5.514-4.5,5.451,5.451,0,0,1,4.024,1.449,5.224,5.224,0,0,1,1.4,3.589l-1.924-.007a3.252,3.252,0,0,0-.839-2.224,3.624,3.624,0,0,0-2.661-.883,3.4,3.4,0,0,0-3.6,2.8c-.18,1.54.948,2.751,3.015,3.24,4.815,1.139,6.257,3.9,6,6.1A5.465,5.465,0,0,1,342.647,73.965Z" transform="translate(-337.093 -53.74)"/><rect class="a" width="2.594" height="1.924" transform="translate(6.747 0) rotate(89.822)"/><rect class="a" width="2.594" height="1.924" transform="translate(6.688 19.262) rotate(89.822)"/></g></g></svg>